<svg xmlns="http://www.w3.org/2000/svg" width="16" height="16" viewBox="0 0 16 16">
  <g id="Iconly_Light-Outline_Discount" data-name="Iconly/Light-Outline/Discount" transform="translate(-2 -2)">
    <g id="Discount" transform="translate(2 2)">
      <path id="Combined-Shape" d="M9.7.7l.585.585a1.2,1.2,0,0,0,.85.35h.822a2.412,2.412,0,0,1,2.409,2.409v.822a1.2,1.2,0,0,0,.351.852l.574.575A2.409,2.409,0,0,1,15.3,9.7l-.586.585a1.2,1.2,0,0,0-.35.85v.823a2.412,2.412,0,0,1-2.408,2.409h-.825a1.216,1.216,0,0,0-.851.351l-.574.574a2.411,2.411,0,0,1-3.4.012l-.019-.02-.568-.567a1.2,1.2,0,0,0-.85-.35H4.043a2.411,2.411,0,0,1-2.408-2.409v-.825a1.2,1.2,0,0,0-.351-.85L.709,9.707A2.412,2.412,0,0,1,.681,6.32L.7,6.3h0l.582-.584a1.2,1.2,0,0,0,.35-.85v-.82A2.412,2.412,0,0,1,4.043,1.635h.824a1.208,1.208,0,0,0,.853-.352L6.291.709A2.411,2.411,0,0,1,9.7.7Zm-2.556.856-.575.577a2.4,2.4,0,0,1-1.7.7H4.043a1.211,1.211,0,0,0-1.209,1.21v.82a2.394,2.394,0,0,1-.7,1.7l-.568.569-.017.017a1.21,1.21,0,0,0,.006,1.709l.578.578a2.389,2.389,0,0,1,.7,1.7v.825a1.21,1.21,0,0,0,1.209,1.209h.821a2.392,2.392,0,0,1,1.7.7l.577.575.016.018h0a1.209,1.209,0,0,0,1.7-.016l.578-.576a2.42,2.42,0,0,1,1.7-.7h.824a1.21,1.21,0,0,0,1.209-1.209v-.823a2.385,2.385,0,0,1,.7-1.7l.576-.577a1.208,1.208,0,0,0,0-1.717l-.577-.578a2.393,2.393,0,0,1-.7-1.7V4.044a1.211,1.211,0,0,0-1.209-1.21h-.822a2.393,2.393,0,0,1-1.7-.7l-.578-.578A1.214,1.214,0,0,0,7.141,1.556ZM10,9.2a.8.8,0,1,1-.007,0ZM10.48,5.52a.6.6,0,0,1,0,.849L6.367,10.48a.6.6,0,0,1-.848-.848L9.631,5.52A.6.6,0,0,1,10.48,5.52ZM6,5.2a.8.8,0,1,1-.007,0Z" transform="translate(0 0)" fill="#fff" fill-rule="evenodd"/>
    </g>
  </g>
</svg>
