<svg xmlns="http://www.w3.org/2000/svg" width="324" height="324" viewBox="0 0 324 324">
  <g id="Group_26" data-name="Group 26" transform="translate(-4 -175)">
    <g id="Group_24" data-name="Group 24" transform="translate(-16 47)">
      <g id="Group_16" data-name="Group 16" transform="translate(12 1)">
        <g id="Group_14" data-name="Group 14" transform="translate(-2474 56)">
          <circle id="Ellipse_10" data-name="Ellipse 10" cx="162" cy="162" r="162" transform="translate(2482 71)" fill="#f2fbff" opacity="0.45"/>
          <g id="Group_13" data-name="Group 13" transform="translate(2513.126 127.579)">
            <path id="Path_80" data-name="Path 80" d="M515.369,694.861H254.378a.378.378,0,1,1,0-.756H515.369a.378.378,0,0,1,0,.756Z" transform="translate(-254 -507.234)" fill="#ccc"/>
            <path id="Path_81" data-name="Path 81" d="M620.231,521.7H466.663a2.459,2.459,0,1,0,0,4.917h4.35v58.818a2.459,2.459,0,0,0,4.917,0l.037-58.818H610.586v58.818a2.459,2.459,0,1,0,4.917,0V527.916l.715-1.3h4.013a2.459,2.459,0,0,0,0-4.917Z" transform="translate(-384.695 -400.043)" fill="#ff6584" opacity="0.85"/>
            <path id="Path_82" data-name="Path 82" d="M613.745,471.838H567.228a3.4,3.4,0,0,1-3.4-3.4V442.83a3.4,3.4,0,0,1,3.4-3.4h46.518a3.4,3.4,0,0,1,3.4,3.4V468.44A3.4,3.4,0,0,1,613.745,471.838Z" transform="translate(-446.638 -348.891)" fill="#f3f3f3"/>
            <path id="Path_83" data-name="Path 83" d="M618.043,446.345H571.526a.785.785,0,0,0-.783.783v25.611a.785.785,0,0,0,.783.783h46.517a.785.785,0,0,0,.783-.783V447.128A.785.785,0,0,0,618.043,446.345Z" transform="translate(-450.936 -353.189)" fill="#fff"/>
            <path id="Path_84" data-name="Path 84" d="M629.324,493.709s-5.569-1.283-8.631,1.069,3.9,7.7,3.9,7.7Z" transform="translate(-481.508 -382.42)" fill="#2f2e41"/>
            <circle id="Ellipse_5" data-name="Ellipse 5" cx="5.253" cy="5.253" r="5.253" transform="translate(138.869 98.358)" fill="#a0616a"/>
            <path id="Path_85" data-name="Path 85" d="M619.454,451.462a3.744,3.744,0,0,1,3.452-1.837,7.339,7.339,0,0,1,2.086.584l3.434,1.339a2.783,2.783,0,0,1,2.068,4.231l-1.285,4.007a12.2,12.2,0,0,0-.728-2.647,4.1,4.1,0,0,0-1.779-2.029,5.8,5.8,0,0,0-2.945-.4,5.884,5.884,0,0,0-3.968,1.249A4.121,4.121,0,0,0,618.744,458a12.294,12.294,0,0,0-.219,2.312,19.155,19.155,0,0,1-1.464-3.138,7.763,7.763,0,0,1-.544-2.54,3.572,3.572,0,0,1,.819-2.416,2.344,2.344,0,0,1,2.357-.742Z" transform="translate(-479.395 -355.224)" fill="#2f2e41"/>
            <path id="Path_86" data-name="Path 86" d="M627.925,497.742a.935.935,0,0,0-.783-.677.326.326,0,0,0-.038-.023l-7.841-4.394a1,1,0,0,0-1.335.344l-2.145,3.472-3.23-3.23-.051-.051a1,1,0,0,0-1.277-.112l-6.445,4.513c-.011,0-.023,0-.034,0a1.374,1.374,0,0,0-1.146,1.282l-.166,3.363h25.736Z" transform="translate(-471.261 -381.898)" fill="#99cae1"/>
            <path id="Path_87" data-name="Path 87" d="M614.229,515.955h-4.966a.523.523,0,0,0-.523-.523h-1.568a.523.523,0,0,0-.523.523h-1.568a.523.523,0,0,0-.523-.523h-1.568a.523.523,0,0,0-.523.523H600.9a.523.523,0,0,0-.523-.523H598.81a.523.523,0,0,0-.523.523H596.72a.523.523,0,0,0-.523-.523h-1.568a.523.523,0,0,0-.523.523h-1.568a.523.523,0,0,0-.523-.523h-1.568a.523.523,0,0,0-.523.523h-1.568a.523.523,0,0,0-.523-.523h-1.568a.523.523,0,0,0-.523.523h-1.568a.523.523,0,0,0-.523-.523h-1.568a.523.523,0,0,0-.523.523h-1.568a.523.523,0,0,0-.523-.523H577.9a.523.523,0,0,0-.523.523h-1.568a.523.523,0,0,0-.523-.523h-1.568a.523.523,0,0,0-.523.523h-1.568a.523.523,0,0,0-.523-.523h-1.568a.523.523,0,0,0-.523.523H567.45a.523.523,0,0,0-.523-.523h-1.568a.523.523,0,0,0-.523.523h-4.965a1.568,1.568,0,1,0,0,3.136h54.358a1.568,1.568,0,1,0,0-3.136Z" transform="translate(-443.202 -396.144)" fill="#f8f8f8"/>
            <path id="Path_88" data-name="Path 88" d="M489.341,492.735v10.411H463.257a5.209,5.209,0,1,1,0-10.411Z" transform="translate(-380.754 -382.03)" fill="#f5f5f5"/>
            <path id="Path_89" data-name="Path 89" d="M489.061,502.676a.4.4,0,0,1-.4.4h-26.79a5.486,5.486,0,1,1,0-10.972h26.79a.4.4,0,0,1,0,.8h-26.79a4.685,4.685,0,1,0,0,9.37h26.79A.4.4,0,0,1,489.061,502.676Z" transform="translate(-379.833 -381.64)" fill="#99cae1"/>
            <path id="Path_90" data-name="Path 90" d="M494.871,498.829H466.839a.08.08,0,0,1,0-.16H494.87a.08.08,0,0,1,0,.16Z" transform="translate(-386.284 -385.721)" fill="#ccc"/>
            <path id="Path_91" data-name="Path 91" d="M494.871,503.911H466.839a.08.08,0,0,1,0-.16H494.87a.08.08,0,0,1,0,.16Z" transform="translate(-386.284 -388.881)" fill="#ccc"/>
            <path id="Path_92" data-name="Path 92" d="M494.871,508.992H466.839a.08.08,0,0,1,0-.16H494.87a.08.08,0,0,1,0,.16Z" transform="translate(-386.284 -392.04)" fill="#ccc"/>
            <path id="Path_93" data-name="Path 93" d="M494.871,514.074H466.839a.08.08,0,0,1,0-.16H494.87a.08.08,0,0,1,0,.16Z" transform="translate(-386.284 -395.2)" fill="#ccc"/>
            <path id="Path_94" data-name="Path 94" d="M476.341,463.735v10.412H450.257a5.209,5.209,0,1,1,0-10.412Z" transform="translate(-372.672 -363.999)" fill="#f5f5f5"/>
            <path id="Path_95" data-name="Path 95" d="M476.061,473.677a.4.4,0,0,1-.4.4h-26.79a5.486,5.486,0,1,1,0-10.972h26.79a.4.4,0,1,1,0,.8h-26.79a4.685,4.685,0,0,0,0,9.37h26.79A.4.4,0,0,1,476.061,473.677Z" transform="translate(-371.75 -363.609)" fill="#99cae1"/>
            <path id="Path_96" data-name="Path 96" d="M481.871,469.829H453.839a.08.08,0,1,1,0-.16H481.87a.08.08,0,1,1,0,.16Z" transform="translate(-378.201 -367.69)" fill="#ccc"/>
            <path id="Path_97" data-name="Path 97" d="M481.871,474.911H453.839a.08.08,0,1,1,0-.16H481.87a.08.08,0,1,1,0,.16Z" transform="translate(-378.201 -370.85)" fill="#ccc"/>
            <path id="Path_98" data-name="Path 98" d="M481.871,479.992H453.839a.08.08,0,1,1,0-.16H481.87a.08.08,0,0,1,0,.16Z" transform="translate(-378.201 -374.009)" fill="#ccc"/>
            <path id="Path_99" data-name="Path 99" d="M481.871,485.074H453.839a.08.08,0,1,1,0-.16H481.87a.08.08,0,1,1,0,.16Z" transform="translate(-378.201 -377.169)" fill="#ccc"/>
            <path id="Path_100" data-name="Path 100" d="M546.749,600.7v-9.078a1.513,1.513,0,0,0-1.513-1.513h-34.42a1.513,1.513,0,0,0-1.513,1.513V600.7Z" transform="translate(-412.735 -442.572)" fill="#ff6584" opacity="0.85"/>
            <rect id="Rectangle_11" data-name="Rectangle 11" width="37.446" height="11.726" transform="translate(96.568 161.528)" fill="#ff6584" opacity="0.85"/>
            <path id="Path_101" data-name="Path 101" d="M509.3,667.105v9.078a1.513,1.513,0,0,0,1.513,1.513h34.421a1.513,1.513,0,0,0,1.513-1.513v-9.078Z" transform="translate(-412.735 -490.447)" fill="#ff6584" opacity="0.85"/>
            <circle id="Ellipse_6" data-name="Ellipse 6" cx="1.135" cy="1.135" r="1.135" transform="translate(113.967 152.072)" fill="#fff"/>
            <circle id="Ellipse_7" data-name="Ellipse 7" cx="1.135" cy="1.135" r="1.135" transform="translate(113.967 167.202)" fill="#fff"/>
            <circle id="Ellipse_8" data-name="Ellipse 8" cx="1.135" cy="1.135" r="1.135" transform="translate(114.028 182.011)" fill="#fff"/>
            <path id="Path_102" data-name="Path 102" d="M545.341,562.735v10.412H519.257a5.209,5.209,0,1,1,0-10.412Z" transform="translate(-415.573 -425.553)" fill="#f5f5f5"/>
            <path id="Path_103" data-name="Path 103" d="M545.061,572.677a.4.4,0,0,1-.4.4h-26.79a5.486,5.486,0,0,1,0-10.972h26.79a.4.4,0,0,1,0,.8h-26.79a4.685,4.685,0,0,0,0,9.37h26.79a.4.4,0,0,1,.4.4Z" transform="translate(-414.651 -425.163)" fill="#99cae1"/>
            <path id="Path_104" data-name="Path 104" d="M550.87,568.829H522.839a.08.08,0,1,1,0-.16H550.87a.08.08,0,1,1,0,.16Z" transform="translate(-421.102 -429.244)" fill="#ccc"/>
            <path id="Path_105" data-name="Path 105" d="M550.87,573.911H522.839a.08.08,0,1,1,0-.16H550.87a.08.08,0,1,1,0,.16Z" transform="translate(-421.102 -432.404)" fill="#ccc"/>
            <path id="Path_106" data-name="Path 106" d="M550.87,578.992H522.839a.08.08,0,1,1,0-.16H550.87a.08.08,0,1,1,0,.16Z" transform="translate(-421.102 -435.563)" fill="#ccc"/>
            <path id="Path_107" data-name="Path 107" d="M550.87,584.074H522.839a.08.08,0,1,1,0-.16H550.87a.08.08,0,1,1,0,.16Z" transform="translate(-421.102 -438.723)" fill="#ccc"/>
            <path id="Path_112" data-name="Path 112" d="M734.015,513.1H722.131a.734.734,0,0,0-.325.076l-3,1.5a.547.547,0,0,0,0,1.006l3,1.5a.734.734,0,0,0,.325.076h11.885a.624.624,0,0,0,.658-.579v-3A.624.624,0,0,0,734.015,513.1Z" transform="translate(-542.787 -394.695)" fill="rgba(108,99,255,0.53)"/>
            <path id="Path_113" data-name="Path 113" d="M756.329,513.682v3a.624.624,0,0,1-.658.579H753.3V513.1h2.368a.624.624,0,0,1,.658.579Z" transform="translate(-564.443 -394.695)" fill="#99cae1"/>
            <path id="Path_114" data-name="Path 114" d="M755.2,453.145a4.162,4.162,0,0,1,5.632,2.615,4,4,0,0,1,.121.543l16.619,8.241L781.415,462l4.785,5.509-5.873,4.769a4.217,4.217,0,0,1-5.031.194l-16.862-11.661a3.983,3.983,0,0,1-.384.14,4.162,4.162,0,0,1-5.3-3.238,4.04,4.04,0,0,1-.062-.507,4.174,4.174,0,0,1,2.506-4.058Z" transform="translate(-564.058 -357.205)" fill="#ffb8b8"/>
            <path id="Path_115" data-name="Path 115" d="M787.111,587.853h-18.16c0,.522-18.716.946-18.716.946a4.863,4.863,0,0,0-.8.757,4.694,4.694,0,0,0-1.1,3.026v.757a4.73,4.73,0,0,0,4.728,4.728h34.042a4.732,4.732,0,0,0,4.728-4.728v-.757A4.735,4.735,0,0,0,787.111,587.853Z" transform="translate(-561.358 -441.172)" fill="#3f3d56"/>
            <rect id="Rectangle_12" data-name="Rectangle 12" width="4.917" height="31.773" transform="translate(210.918 188.479) rotate(180)" fill="#3f3d56"/>
            <path id="Path_116" data-name="Path 116" d="M761.617,690.1c0,.531,7.451.206,16.643.206s16.643.326,16.643-.206-7.451-4.744-16.643-4.744S761.617,689.57,761.617,690.1Z" transform="translate(-569.612 -501.795)" fill="#3f3d56"/>
            <path id="Path_117" data-name="Path 117" d="M508.1,468.223h-4.637L501.261,456.2h6.844Z" transform="translate(-311.66 -283.64)" fill="#ffb8b8"/>
            <path id="Path_118" data-name="Path 118" d="M751.9,690.06H736.95v-.189a5.82,5.82,0,0,1,5.82-5.82H751.9Z" transform="translate(-554.275 -500.983)" fill="#2f2e41"/>
            <path id="Path_119" data-name="Path 119" d="M738.754,598.013l-9.245-20.731a7.6,7.6,0,0,1,3.336-9.753L752.9,556.777l9.15-.778,8.44-.767.061.1a8.543,8.543,0,0,1,.666,6.7c-.931,2.607-3.351,4.643-7.194,6.053-8.97,3.289-19.332,6.1-23.371,7.156a1.305,1.305,0,0,0-.836.666,1.323,1.323,0,0,0-.074,1.059l8.589,19.3a1.7,1.7,0,0,1-1.441,2.281l-6.418.467q-.082.008-.163.008a1.7,1.7,0,0,1-1.553-1.009Z" transform="translate(-549.245 -420.889)" fill="#2f2e41"/>
            <path id="Path_120" data-name="Path 120" d="M514.1,468.223h-4.637L507.261,456.2H514.1Z" transform="translate(-315.391 -283.64)" fill="#ffb8b8"/>
            <path id="Path_121" data-name="Path 121" d="M757.9,690.06H742.95v-.189a5.82,5.82,0,0,1,5.82-5.82H757.9Z" transform="translate(-558.006 -500.983)" fill="#2f2e41"/>
            <path id="Path_122" data-name="Path 122" d="M745.754,601.013l-9.245-20.731a7.6,7.6,0,0,1,3.336-9.753L759.9,559.777l9.15-.778,8.441-.767.061.1a8.542,8.542,0,0,1,.666,6.7c-.93,2.607-3.351,4.643-7.194,6.053-8.97,3.289-19.332,6.1-23.371,7.156a1.305,1.305,0,0,0-.836.666,1.323,1.323,0,0,0-.074,1.059l8.589,19.3a1.7,1.7,0,0,1-1.441,2.281l-6.418.467q-.082.008-.163.008A1.7,1.7,0,0,1,745.754,601.013Z" transform="translate(-553.598 -422.754)" fill="#2f2e41"/>
            <path id="Path_123" data-name="Path 123" d="M734.722,460.724a63.356,63.356,0,0,1-9.106-17,1.627,1.627,0,0,1,.769-1.959l13.294-7.123a1.606,1.606,0,0,1,1.409-.057,1.634,1.634,0,0,1,.931,1.091,38.7,38.7,0,0,0,8.49,15.845,1.633,1.633,0,0,1,.393,1.379,1.606,1.606,0,0,1-.828,1.142l-13.294,7.123A1.627,1.627,0,0,1,734.722,460.724Z" transform="translate(-547.174 -345.795)" fill="#ccc"/>
            <path id="Path_124" data-name="Path 124" d="M737.494,461.907a.491.491,0,0,0,.614.127l13.294-7.123a.471.471,0,0,0,.247-.339.5.5,0,0,0-.123-.427,39.846,39.846,0,0,1-8.74-16.312.5.5,0,0,0-.287-.339.472.472,0,0,0-.42.017l-13.293,7.123a.491.491,0,0,0-.234.581,62.226,62.226,0,0,0,8.943,16.691Z" transform="translate(-549.038 -347.661)" fill="#fff"/>
            <path id="Path_125" data-name="Path 125" d="M844.89,484.484l-10.411,3.956-2.542-7.061a4.224,4.224,0,0,1,1.892-5.106h0a4.224,4.224,0,0,1,5.395,1.053Z" transform="translate(-613.178 -371.455)" fill="#6c63ff"/>
            <path id="Path_126" data-name="Path 126" d="M794.321,512.168a1.89,1.89,0,0,1-.788-1.342c-1.333-12.448-.4-22.19,2.839-29.781a9.453,9.453,0,0,1,6.266-5.363l8.416-.425.044.021a9.836,9.836,0,0,1,5.378,10.435c-2.707,7.135-4.973,14.564-3.245,20.556a1.937,1.937,0,0,1-.183,1.507,1.847,1.847,0,0,1-1.178.873l-16.03,3.813a1.878,1.878,0,0,1-1.519-.294Z" transform="translate(-589.09 -371.165)" fill="#99cae1"/>
            <circle id="Ellipse_9" data-name="Ellipse 9" cx="9.29" cy="9.29" r="9.29" transform="translate(209.865 82.368)" fill="#ffb8b8"/>
            <path id="Path_127" data-name="Path 127" d="M750.429,457.6l-7.24,3.2a1.136,1.136,0,0,1-1.5-.58l-.179-.406a1.136,1.136,0,0,1,.58-1.5l7.24-3.2a1.136,1.136,0,0,1,1.5.58l.179.406a1.136,1.136,0,0,1-.58,1.5Z" transform="translate(-557.053 -358.584)" fill="#ccc"/>
            <path id="Path_128" data-name="Path 128" d="M757.429,470.6l-7.24,3.2a1.136,1.136,0,0,1-1.5-.58l-.179-.406a1.136,1.136,0,0,1,.58-1.5l7.24-3.2a1.136,1.136,0,0,1,1.5.58l.179.406A1.136,1.136,0,0,1,757.429,470.6Z" transform="translate(-561.405 -366.666)" fill="#ccc"/>
            <path id="Path_129" data-name="Path 129" d="M751.423,491.375l-16.141-12.734a3.974,3.974,0,0,1-.392.116,4.171,4.171,0,0,1-3.335-.64,4.127,4.127,0,0,1-1.75-2.925,4.161,4.161,0,0,1,8.183-1.438,4.013,4.013,0,0,1,.087.549l16.069,9.27,4-2.3,4.43,5.8-6.209,4.425a4.139,4.139,0,0,1-4.94-.12Z" transform="translate(-549.815 -368.236)" fill="#ffb8b8"/>
            <path id="Path_130" data-name="Path 130" d="M806.547,495.7l-9.21-6.263,4.328-6.13a4.224,4.224,0,0,1,5.268-1.377h0a4.224,4.224,0,0,1,2.23,5.024Z" transform="translate(-591.821 -375.057)" fill="#99cae1"/>
            <path id="Path_131" data-name="Path 131" d="M808.457,419.885c-2.388,1.634-5.523,3.314-7.962,1.574a4.438,4.438,0,0,1-1.456-5.116c1.168-3.339,4.376-4.81,7.444-5.936,3.988-1.465,8.331-2.63,12.449-1.581s7.756,5.036,7.013,9.219c-.6,3.364-3.771,6.163-3.321,9.551.453,3.409,4.287,5.2,7.671,5.812s7.172.8,9.6,3.236c3.1,3.1,2.328,8.644-.592,11.918s-7.326,4.758-11.595,5.767c-5.656,1.337-11.774,2.039-17.147-.179s-9.553-8.191-8-13.791a19.24,19.24,0,0,1,3.7-6.311,17.587,17.587,0,0,0,3.583-6.369,6.621,6.621,0,0,0-1.2-5.793,1.678,1.678,0,0,1-.225-1.962Z" transform="translate(-592.708 -329.61)" fill="#2f2e41"/>
            <path id="Path_132" data-name="Path 132" d="M320.535,494.047a14.776,14.776,0,0,1-14.268-2.513c-5-4.194-6.564-11.1-7.839-17.5L294.657,455.1l7.895,5.436c5.677,3.909,11.483,7.944,15.414,13.606s5.647,13.392,2.488,19.519" transform="translate(-279.279 -358.635)" fill="rgba(103,232,116,0.77)"/>
            <path id="Path_133" data-name="Path 133" d="M342.7,556.485c.8-5.82,1.621-11.715,1.06-17.6a27.678,27.678,0,0,0-5.337-14.511,24.142,24.142,0,0,0-6.194-5.612c-.619-.391-1.189.591-.573.98a22.949,22.949,0,0,1,9.078,10.953c1.976,5.027,2.294,10.506,1.953,15.846-.206,3.229-.642,6.437-1.082,9.641a.588.588,0,0,0,.4.7.571.571,0,0,0,.7-.4Z" transform="translate(-302.119 -398.159)" fill="#f2f2f2"/>
            <path id="Path_134" data-name="Path 134" d="M287.481,572.053A10.877,10.877,0,0,1,278,576.944c-4.8-.228-8.8-3.576-12.4-6.755l-10.649-9.4,7.048-.337c5.068-.243,10.267-.469,15.095,1.094s9.28,5.325,10.162,10.321" transform="translate(-254.596 -424.027)" fill="rgba(103,232,116,0.77)"/>
            <path id="Path_135" data-name="Path 135" d="M328.486,598.616c-3.846-6.805-8.307-14.368-16.278-16.785a18.164,18.164,0,0,0-6.847-.707c-.727.063-.545,1.183.18,1.121a16.875,16.875,0,0,1,10.926,2.891,28.4,28.4,0,0,1,7.51,8.1c1.244,1.894,2.358,3.868,3.472,5.839C327.805,599.708,328.846,599.253,328.486,598.616Z" transform="translate(-285.646 -436.944)" fill="#f2f2f2"/>
            <path id="Path_136" data-name="Path 136" d="M354.013,628.615a8.236,8.236,0,0,0-5.047-6.9v-3.934h-6.6v4.058a8.232,8.232,0,0,0-4.772,6.774l-1.552,18.036h19.521Z" transform="translate(-305.011 -459.781)" fill="#f2f2f2"/>
          </g>
          <circle id="Ellipse_11" data-name="Ellipse 11" cx="5.253" cy="5.253" r="5.253" transform="translate(2651.995 225.937)" fill="#a0616a"/>
          <path id="Path_137" data-name="Path 137" d="M619.454,451.462a3.744,3.744,0,0,1,3.452-1.837,7.339,7.339,0,0,1,2.086.584l3.434,1.339a2.783,2.783,0,0,1,2.068,4.231l-1.285,4.007a12.2,12.2,0,0,0-.728-2.647,4.1,4.1,0,0,0-1.779-2.029,5.8,5.8,0,0,0-2.945-.4,5.884,5.884,0,0,0-3.968,1.249A4.121,4.121,0,0,0,618.744,458a12.294,12.294,0,0,0-.219,2.312,19.155,19.155,0,0,1-1.464-3.138,7.763,7.763,0,0,1-.544-2.54,3.572,3.572,0,0,1,.819-2.416,2.344,2.344,0,0,1,2.357-.742Z" transform="translate(2033.732 -227.645)" fill="#2f2e41"/>
        </g>
        <g id="Group_15" data-name="Group 15" transform="translate(-29.422 6)">
          <path id="Path_141" data-name="Path 141" d="M391,181h4.711v21.2H391Z" transform="translate(-170.879 32.823)" fill="#f37592"/>
          <path id="Path_142" data-name="Path 142" d="M167.488,205.007,151,198.41V182.831l16.488,6.6,16.488-6.6V198.41Z" transform="translate(31.434 31.28)" fill="#474f54"/>
          <path id="Path_143" data-name="Path 143" d="M95.5,128.761,65.6,116.8l29.9-11.959L125.4,116.8Z" transform="translate(103.424 97.021)" fill="#575f64"/>
        </g>
      </g>
      <g id="Group_17" data-name="Group 17" transform="translate(-1397.265 -100)">
        <rect id="Rectangle_13" data-name="Rectangle 13" width="63" height="14" rx="7" transform="translate(1605.265 256)" fill="#fff" opacity="0.4"/>
        <line id="Line_1" data-name="Line 1" x2="32.078" transform="translate(1636.687 260.303)" fill="none" stroke="#fff" stroke-width="1"/>
        <line id="Line_2" data-name="Line 2" x1="31.296" transform="translate(1605.391 263.433)" fill="none" stroke="#fff" stroke-width="1"/>
        <line id="Line_3" data-name="Line 3" x2="25.036" transform="translate(1643.728 265.78)" fill="none" stroke="#fff" stroke-width="1"/>
        <line id="Line_4" data-name="Line 4" x1="24.254" transform="translate(1610.868 267.345)" fill="none" stroke="#fff" stroke-width="1"/>
        <line id="Line_5" data-name="Line 5" x1="19.56" transform="translate(1610.868 257.174)" fill="none" stroke="#fff" stroke-width="1"/>
      </g>
      <g id="Group_18" data-name="Group 18" transform="translate(-1553.265 -57)">
        <rect id="Rectangle_13-2" data-name="Rectangle 13" width="63" height="14" rx="7" transform="translate(1605.265 256)" fill="#fff" opacity="0.4"/>
        <line id="Line_1-2" data-name="Line 1" x2="32.078" transform="translate(1636.687 260.303)" fill="none" stroke="#fff" stroke-width="1"/>
        <line id="Line_2-2" data-name="Line 2" x1="31.296" transform="translate(1605.391 263.433)" fill="none" stroke="#fff" stroke-width="1"/>
        <line id="Line_3-2" data-name="Line 3" x2="25.036" transform="translate(1643.728 265.78)" fill="none" stroke="#fff" stroke-width="1"/>
        <line id="Line_4-2" data-name="Line 4" x1="24.254" transform="translate(1610.868 267.345)" fill="none" stroke="#fff" stroke-width="1"/>
        <line id="Line_5-2" data-name="Line 5" x1="19.56" transform="translate(1610.868 257.174)" fill="none" stroke="#fff" stroke-width="1"/>
      </g>
      <g id="Group_25" data-name="Group 25" transform="translate(-1585.015 8)">
        <rect id="Rectangle_13-3" data-name="Rectangle 13" width="63" height="14" rx="7" transform="translate(1605.265 256)" fill="#fff" opacity="0.4"/>
        <line id="Line_1-3" data-name="Line 1" x2="32.078" transform="translate(1636.687 260.303)" fill="none" stroke="#fff" stroke-width="1"/>
        <line id="Line_2-3" data-name="Line 2" x1="31.296" transform="translate(1605.391 263.433)" fill="none" stroke="#fff" stroke-width="1"/>
        <line id="Line_3-3" data-name="Line 3" x2="25.036" transform="translate(1643.728 265.78)" fill="none" stroke="#fff" stroke-width="1"/>
        <line id="Line_4-3" data-name="Line 4" x1="24.254" transform="translate(1610.868 267.345)" fill="none" stroke="#fff" stroke-width="1"/>
        <line id="Line_5-3" data-name="Line 5" x1="19.56" transform="translate(1610.868 257.174)" fill="none" stroke="#fff" stroke-width="1"/>
      </g>
      <g id="Group_19" data-name="Group 19" transform="translate(-1336.265 -26)">
        <rect id="Rectangle_13-4" data-name="Rectangle 13" width="63" height="14" rx="7" transform="translate(1605.265 256)" fill="#fff" opacity="0.4"/>
        <line id="Line_1-4" data-name="Line 1" x2="32.078" transform="translate(1636.687 260.303)" fill="none" stroke="#fff" stroke-width="1"/>
        <line id="Line_2-4" data-name="Line 2" x1="31.296" transform="translate(1605.391 263.433)" fill="none" stroke="#fff" stroke-width="1"/>
        <line id="Line_3-4" data-name="Line 3" x2="25.036" transform="translate(1643.728 265.78)" fill="none" stroke="#fff" stroke-width="1"/>
        <line id="Line_4-4" data-name="Line 4" x1="24.254" transform="translate(1610.868 267.345)" fill="none" stroke="#fff" stroke-width="1"/>
        <line id="Line_5-4" data-name="Line 5" x1="19.56" transform="translate(1610.868 257.174)" fill="none" stroke="#fff" stroke-width="1"/>
      </g>
      <g id="Group_20" data-name="Group 20" transform="translate(-1314.818 68)">
        <rect id="Rectangle_13-5" data-name="Rectangle 13" width="48" height="11" rx="5.5" transform="translate(1604.818 256)" fill="#fff" opacity="0.4"/>
        <line id="Line_1-5" data-name="Line 1" x2="24.275" transform="translate(1629.043 259.256)" fill="none" stroke="#fff" stroke-width="1"/>
        <line id="Line_2-5" data-name="Line 2" x1="23.683" transform="translate(1605.36 261.625)" fill="none" stroke="#fff" stroke-width="1"/>
        <line id="Line_3-5" data-name="Line 3" x2="18.946" transform="translate(1634.372 263.401)" fill="none" stroke="#fff" stroke-width="1"/>
        <line id="Line_4-5" data-name="Line 4" x1="18.354" transform="translate(1609.505 264.585)" fill="none" stroke="#fff" stroke-width="1"/>
        <line id="Line_5-5" data-name="Line 5" x1="14.802" transform="translate(1609.505 256.888)" fill="none" stroke="#fff" stroke-width="1"/>
      </g>
      <g id="Group_22" data-name="Group 22" transform="translate(-1539.015 132)">
        <rect id="Rectangle_13-6" data-name="Rectangle 13" width="63" height="14" rx="7" transform="translate(1605.265 256)" fill="#fff" opacity="0.4"/>
        <line id="Line_1-6" data-name="Line 1" x2="32.078" transform="translate(1636.687 260.303)" fill="none" stroke="#fff" stroke-width="1"/>
        <line id="Line_2-6" data-name="Line 2" x1="31.296" transform="translate(1605.391 263.433)" fill="none" stroke="#fff" stroke-width="1"/>
        <line id="Line_3-6" data-name="Line 3" x2="25.036" transform="translate(1643.728 265.78)" fill="none" stroke="#fff" stroke-width="1"/>
        <line id="Line_4-6" data-name="Line 4" x1="24.254" transform="translate(1610.868 267.345)" fill="none" stroke="#fff" stroke-width="1"/>
        <line id="Line_5-6" data-name="Line 5" x1="19.56" transform="translate(1610.868 257.174)" fill="none" stroke="#fff" stroke-width="1"/>
      </g>
      <g id="Group_23" data-name="Group 23" transform="translate(-1399.765 143)">
        <rect id="Rectangle_13-7" data-name="Rectangle 13" width="63" height="14" rx="7" transform="translate(1605.265 256)" fill="#fff" opacity="0.4"/>
        <line id="Line_1-7" data-name="Line 1" x2="32.078" transform="translate(1636.687 260.303)" fill="none" stroke="#fff" stroke-width="1"/>
        <line id="Line_2-7" data-name="Line 2" x1="31.296" transform="translate(1605.391 263.433)" fill="none" stroke="#fff" stroke-width="1"/>
        <line id="Line_3-7" data-name="Line 3" x2="25.036" transform="translate(1643.728 265.78)" fill="none" stroke="#fff" stroke-width="1"/>
        <line id="Line_4-7" data-name="Line 4" x1="24.254" transform="translate(1610.868 267.345)" fill="none" stroke="#fff" stroke-width="1"/>
        <line id="Line_5-7" data-name="Line 5" x1="19.56" transform="translate(1610.868 257.174)" fill="none" stroke="#fff" stroke-width="1"/>
      </g>
    </g>
  </g>
</svg>
