<svg xmlns="http://www.w3.org/2000/svg" width="26.032" height="24.796" viewBox="0 0 26.032 24.796">
  <g id="Iconly_Light-Outline_Heart" data-name="Iconly/Light-Outline/Heart" transform="translate(-2 -3)">
    <g id="Heart" transform="translate(2 3)">
      <path id="Combined-Shape" d="M13.014,1.321A8.763,8.763,0,0,1,20.2.413c5.161,1.664,6.763,7.291,5.33,11.768-2.211,7.032-11.655,12.277-12.055,12.5a.952.952,0,0,1-.914,0c-.4-.217-9.773-5.385-12.058-12.5a0,0,0,0,1,0,0C-.932,7.7.665,2.075,5.821.413A8.556,8.556,0,0,1,13.014,1.321Zm-6.608.908C2.234,3.574,1.186,8.062,2.319,11.6c1.783,5.546,8.826,10.031,10.7,11.141,1.878-1.122,8.972-5.656,10.7-11.136,1.133-3.543.081-8.03-4.1-9.376A6.725,6.725,0,0,0,13.6,3.236a.954.954,0,0,1-1.157.008A6.655,6.655,0,0,0,6.406,2.229ZM18.4,4.754a4.483,4.483,0,0,1,3.1,3.91.953.953,0,0,1-.874,1.027c-.027,0-.052,0-.079,0a.954.954,0,0,1-.95-.876A2.574,2.574,0,0,0,17.811,6.57.954.954,0,1,1,18.4,4.754Z" fill="#fff" fill-rule="evenodd"/>
    </g>
  </g>
</svg>
