<svg xmlns="http://www.w3.org/2000/svg" width="60" height="60" viewBox="0 0 60 60">
  <g id="svgexport-5_18_" data-name="svgexport-5(18)" transform="translate(-2 -2)">
    <g id="Outline">
      <path id="Path_154" data-name="Path 154" d="M48.16,44.4l-2.244,1.3A8,8,0,0,0,44,44.587V42H38v2.587a8,8,0,0,0-1.916,1.11L36,45.649V40c0-2.748-5.7-4-11-4s-11,1.252-11,4V58c0,2.748,5.7,4,11,4,5.045,0,10.445-1.138,10.95-3.62l.134-.077A8,8,0,0,0,38,59.413V62h6V59.413a8,8,0,0,0,1.916-1.11l2.244,1.3,3-5.2-2.241-1.294a7.6,7.6,0,0,0,0-2.214L51.16,49.6Zm-14.32,0-1.481,2.565A23.119,23.119,0,0,1,25,48c-5.851,0-8.85-1.46-9-2V42.433c.014.007.031.012.045.019q.361.178.773.335c.073.028.153.053.229.081.212.076.43.149.657.217.108.032.217.062.328.092q.325.09.667.169c.109.026.217.052.328.075q.428.092.874.168l.168.031q.534.087,1.09.154l.32.034c.271.03.543.057.819.079.129.011.258.021.388.03.269.018.539.034.81.046l.355.016c.384.013.767.021,1.149.021s.765-.008,1.149-.021l.355-.016c.271-.012.541-.028.81-.046.13-.009.259-.019.388-.03.276-.022.548-.049.819-.079l.32-.034q.555-.068,1.09-.154l.168-.031q.447-.077.874-.168c.111-.023.219-.049.328-.075q.342-.079.667-.169c.111-.03.22-.06.328-.092.227-.068.445-.141.657-.217.076-.028.156-.053.229-.081q.411-.156.773-.335c.014-.007.031-.012.045-.019v2.061ZM25,38c.364,0,.717.006,1.06.016.121,0,.233.012.352.017.215.009.432.017.638.03.169.011.327.026.49.039.145.012.3.022.435.035.2.019.382.042.569.064.095.012.2.021.287.033.246.032.479.068.707.1l.08.011c2.776.461,4.234,1.258,4.377,1.647a.343.343,0,0,1-.026.05.433.433,0,0,1-.038.062c-.015.018-.037.037-.055.056a.993.993,0,0,1-.079.077c-.032.027-.051.038-.076.057s-.076.058-.123.089c-.029.019-.066.039-.1.059-.053.032-.1.064-.166.1-.037.02-.082.04-.121.06-.068.035-.134.069-.211.1l-.141.06c-.083.035-.164.071-.256.107-.051.02-.11.04-.164.06-.1.036-.193.072-.3.107-.062.021-.132.041-.2.062-.109.034-.215.069-.332.1-.075.022-.158.042-.236.063-.118.032-.234.064-.36.1-.089.022-.187.042-.28.063-.125.029-.247.058-.379.085-.107.022-.223.041-.335.062-.13.024-.257.05-.393.072s-.262.039-.393.059-.26.041-.4.059-.3.035-.454.052c-.136.015-.267.032-.407.046-.17.016-.351.028-.528.042-.133.01-.26.023-.4.032-.223.014-.457.023-.691.032-.1,0-.2.011-.3.015-.343.01-.7.016-1.06.016-.731,0-1.418-.023-2.06-.064-4.48-.286-6.791-1.455-6.937-1.931C16.183,39.445,19.179,38,25,38ZM16,48.427C18.127,49.5,21.642,50,25,50a29.432,29.432,0,0,0,5.934-.564l-.094.163,2.241,1.294A7.739,7.739,0,0,0,33,52c0,.225.029.456.05.685A20.442,20.442,0,0,1,25,54c-5.851,0-8.85-1.46-9-2h0ZM16,58V54.433C18.129,55.5,21.646,56,25,56a28.431,28.431,0,0,0,6.376-.671l1.878,3.255C32.023,59.22,29.277,60,25,60,19.149,60,16.15,58.54,16,58Zm30.831-7.389a5.793,5.793,0,0,1,0,2.778l-.171.724,1.768,1.021-1,1.732-1.769-1.021-.542.51a6.014,6.014,0,0,1-2.4,1.393L42,57.96V60H40V57.96l-.715-.212a6.014,6.014,0,0,1-2.4-1.393l-.542-.51-1.769,1.021-1-1.732,1.768-1.021-.171-.724a5.793,5.793,0,0,1,0-2.778l.171-.724-1.768-1.021,1-1.732,1.769,1.021.542-.51a6.014,6.014,0,0,1,2.4-1.393L40,46.04V44h2v2.04l.715.212a6.014,6.014,0,0,1,2.4,1.393l.542.51,1.769-1.021,1,1.732L46.66,49.887Z" fill="#fff"/>
      <path id="Path_155" data-name="Path 155" d="M41,48a4,4,0,1,0,4,4A4,4,0,0,0,41,48Zm0,6a2,2,0,1,1,2-2A2,2,0,0,1,41,54Z" fill="#fff"/>
      <path id="Path_156" data-name="Path 156" d="M38,2H26V22H38ZM36,4V16H28V4ZM32,20H28V18h8v2Z" fill="#fff"/>
      <path id="Path_157" data-name="Path 157" d="M33,19a1.05,1.05,0,0,0-.29-.71,1.018,1.018,0,0,0-.91-.27.636.636,0,0,0-.18.06.782.782,0,0,0-.181.09,1.7,1.7,0,0,0-.149.12A1.045,1.045,0,0,0,31,19a1,1,0,1,0,2,0Z" fill="#fff"/>
      <path id="Path_158" data-name="Path 158" d="M13,24H11v6H31v4h2V30H53V24H51v4H33V24H31v4H13Z" fill="#fff"/>
      <path id="Path_159" data-name="Path 159" d="M8,20H6v2H18V20H16V18h6V2H2V18H8Zm6,0H10V18h4ZM4,4H20v8H4ZM4,16V14H20v2Z" fill="#fff"/>
      <path id="Path_160" data-name="Path 160" d="M42,22H62V2H42Zm18-2H44V10H60ZM44,4H60V8H44Z" fill="#fff"/>
      <path id="Path_161" data-name="Path 161" d="M46.55,5.17a.568.568,0,0,0-.17-.09.609.609,0,0,0-.191-.06,1,1,0,0,0-.9.27,1.032,1.032,0,0,0-.21.33.99.99,0,0,0,.21,1.09,1.155,1.155,0,0,0,.33.21.942.942,0,0,0,.76,0,1.169,1.169,0,0,0,.33-.21A.994.994,0,0,0,47,6a1.05,1.05,0,0,0-.29-.71,1,1,0,0,0-.16-.12Z" fill="#fff"/>
      <path id="Path_162" data-name="Path 162" d="M49.71,5.29a1.047,1.047,0,0,0-1.42,0,1.032,1.032,0,0,0-.21.33A1,1,0,0,0,48,6a.838.838,0,0,0,.08.38,1.169,1.169,0,0,0,.21.33.99.99,0,0,0,1.09.21,1.169,1.169,0,0,0,.33-.21,1.169,1.169,0,0,0,.21-.33.942.942,0,0,0,0-.76,1.155,1.155,0,0,0-.21-.33Z" fill="#fff"/>
      <path id="Path_163" data-name="Path 163" d="M52.71,5.29a1.169,1.169,0,0,0-.33-.21.949.949,0,0,0-.58-.06.636.636,0,0,0-.18.06.782.782,0,0,0-.181.09,1.7,1.7,0,0,0-.149.12.933.933,0,0,0-.21.33.943.943,0,0,0,0,.76,1.169,1.169,0,0,0,.21.33,1.155,1.155,0,0,0,.33.21A1,1,0,0,0,52,7a1.033,1.033,0,0,0,.71-.29,1.169,1.169,0,0,0,.21-.33,1.034,1.034,0,0,0-.21-1.09Z" fill="#fff"/>
    </g>
  </g>
</svg>
