<svg xmlns="http://www.w3.org/2000/svg" width="56.909" height="50.861" viewBox="0 0 56.909 50.861">
  <g id="svgexport-5_17_" data-name="svgexport-5(17)" transform="translate(0 -27.209)">
    <path id="Path_153" data-name="Path 153" d="M24.025,38.9a.834.834,0,0,0,.834-.834V37.1a.834.834,0,0,0-1.667,0v.967A.834.834,0,0,0,24.025,38.9Zm-11.651,0a.834.834,0,0,0,.834-.834V37.1a.834.834,0,0,0-1.667,0v.967A.834.834,0,0,0,12.373,38.9Zm-1.307,6.021H25.332a.834.834,0,1,0,0-1.667H11.066a.834.834,0,0,0,0,1.667ZM18.2,39.645a2.871,2.871,0,0,0,2.164-.986.834.834,0,1,0-1.257-1.1,1.2,1.2,0,0,1-1.815,0,.834.834,0,1,0-1.257,1.1,2.87,2.87,0,0,0,2.164.986Zm-7.133,9.809H25.332a.834.834,0,1,0,0-1.667H11.066a.834.834,0,0,0,0,1.667ZM49.487,27.209H48.3a.834.834,0,1,0,0,1.667h1.192a5.762,5.762,0,0,1,5.755,5.755V57.088H52.4V35.462a3.751,3.751,0,0,0-3.747-3.747H8.253a3.751,3.751,0,0,0-3.747,3.747V57.088H1.667V34.631a5.762,5.762,0,0,1,5.755-5.755H44.367a.834.834,0,0,0,0-1.667H7.422A7.431,7.431,0,0,0,0,34.631V59.765a7.408,7.408,0,0,0,6.124,7.309.834.834,0,1,0,.29-1.642,5.743,5.743,0,0,1-4.747-5.667v-1.01H55.242v1.01a5.762,5.762,0,0,1-5.755,5.755h-39.3a.834.834,0,1,0,0,1.667h9.971l-.445,4.828h-.363a3.585,3.585,0,0,0-3.42,2.558l-.193.654A2.216,2.216,0,0,0,17.86,78.07H39.049a2.216,2.216,0,0,0,2.126-2.841l-.193-.655a3.585,3.585,0,0,0-3.42-2.558H37.2l-.445-4.828H49.487a7.431,7.431,0,0,0,7.422-7.422V34.631a7.431,7.431,0,0,0-7.422-7.422ZM29.8,57.088H6.174V35.462a2.082,2.082,0,0,1,2.08-2.08H29.8Zm20.935,0H31.468v-23.7H48.656a2.082,2.082,0,0,1,2.08,2.08V57.088Zm-28.907,10.1H35.081l.445,4.828H21.384Zm15.733,6.5a1.908,1.908,0,0,1,1.82,1.362l.193.655a.548.548,0,0,1-.526.7H17.86a.538.538,0,0,1-.439-.22.544.544,0,0,1-.087-.484l.193-.654a1.908,1.908,0,0,1,1.82-1.362H37.562ZM30.054,62.138a1.6,1.6,0,1,0-1.6,1.6A1.6,1.6,0,0,0,30.054,62.138ZM48.267,39.821,42.6,36.546a2.994,2.994,0,0,0-2.986,0l-5.672,3.275a1.4,1.4,0,0,0-.7,1.125.832.832,0,0,0-.006.1V48.84a1.4,1.4,0,0,0,.707,1.224l5.672,3.275a2.982,2.982,0,0,0,1.422.4c.024,0,.047,0,.071,0s.048,0,.071,0a2.982,2.982,0,0,0,1.422-.4l5.672-3.275a1.4,1.4,0,0,0,.707-1.224V41.045a.832.832,0,0,0-.006-.1A1.394,1.394,0,0,0,48.267,39.821Zm-8,11.972-5.371-3.1V42.824l4.712,2.72a2.972,2.972,0,0,0,.659.279Zm.174-7.694-5.291-3.055,5.291-3.055a1.323,1.323,0,0,1,1.319,0l5.291,3.055L41.761,44.1A1.322,1.322,0,0,1,40.443,44.1Zm6.864,4.593-5.371,3.1v-5.97a2.966,2.966,0,0,0,.659-.279l4.712-2.72v5.869ZM11.066,53.985h7.91a2.569,2.569,0,0,0,4.862,0h1.5a.834.834,0,0,0,0-1.667h-1.5a2.569,2.569,0,0,0-4.862,0h-7.91a.834.834,0,0,0,0,1.667Zm10.34-1.737a.9.9,0,1,1-.9.9A.9.9,0,0,1,21.406,52.248Z" fill="#fff"/>
  </g>
</svg>
